# xmcd
#
# Track frame offsets:
#	150
#	13698
#	25968
#	39122
#	51812
#	69305
#	81019
#	99537
#	107874
#	121645
#	140634
#	154011
#	165351
#
# Disc length: 2403 seconds
#
# Revision: 1
# Processed by: cddbd v1.5.1PL0 Copyright (c) Steve Scherf et al.
# Submitted via: audiograbber 1.83.01
#
DISCID=9709610d
DTITLE=Bluegrass Brothers - The Church of Yesterday
DYEAR=2004
DGENRE=Bluegrass
TTITLE0=Everybody Wants To Go To Heaven (But Nobody Wants to Die)
TTITLE1=Ask The Lord
TTITLE2=The Church Of Yesterday
TTITLE3=I'm Gonna Go Home
TTITLE4=Heaven
TTITLE5=Little White Church
TTITLE6=How Great Thou Art
TTITLE7=Hard Working Pilgrim
TTITLE8=There's No New Way Home
TTITLE9=Old Rugged Cross
TTITLE10=One Big Family
TTITLE11=Shouting On The Hills of Glory
TTITLE12=Six Hours On The Cross
EXTD=
EXTT0=
EXTT1=
EXTT2=
EXTT3=
EXTT4=
EXTT5=
EXTT6=
EXTT7=
EXTT8=
EXTT9=
EXTT10=
EXTT11=
EXTT12=
PLAYORDER=
